<svg xmlns="http://www.w3.org/2000/svg" viewBox="0 0 232.32 45.76"><defs><style>.cls-1{fill:#1d1311;}</style></defs><g id="레이어_2" data-name="레이어 2"><g id="레이어_1-2" data-name="레이어 1"><path class="cls-1" d="M13.2,1.32A11.63,11.63,0,0,1,18.86,0a12.72,12.72,0,0,1,6.88,1.92,13.41,13.41,0,0,1,4.87,5.5,18.42,18.42,0,0,1,1.79,8.31,18.53,18.53,0,0,1-1.79,8.33,13.52,13.52,0,0,1-4.87,5.56,12.57,12.57,0,0,1-6.88,1.95,11.67,11.67,0,0,1-5.63-1.32A10.43,10.43,0,0,1,9.4,26.84V45.76H0V.44H9.4V4.78A10.26,10.26,0,0,1,13.2,1.32Zm7.67,8.88a6.43,6.43,0,0,0-4.81-2,6.34,6.34,0,0,0-4.76,2,7.7,7.7,0,0,0-2,5.55,7.71,7.71,0,0,0,2,5.56,6.34,6.34,0,0,0,4.76,2,6.37,6.37,0,0,0,4.78-2.07,7.66,7.66,0,0,0,2-5.58A7.6,7.6,0,0,0,20.87,10.2Z"/><path class="cls-1" d="M37.26,7.42a13.41,13.41,0,0,1,4.87-5.5A12.71,12.71,0,0,1,49,0a11.85,11.85,0,0,1,5.7,1.32,9.7,9.7,0,0,1,3.76,3.46V.44h9.41V31.13H58.46V26.78a10.12,10.12,0,0,1-3.82,3.47A11.8,11.8,0,0,1,49,31.57a12.49,12.49,0,0,1-6.82-1.95,13.52,13.52,0,0,1-4.87-5.56,18.53,18.53,0,0,1-1.79-8.33A18.42,18.42,0,0,1,37.26,7.42Zm19.25,2.81a6.6,6.6,0,0,0-9.51,0,7.56,7.56,0,0,0-2,5.53,7.74,7.74,0,0,0,2,5.58,6.27,6.27,0,0,0,4.75,2.07,6.34,6.34,0,0,0,4.76-2,7.71,7.71,0,0,0,2-5.56A7.7,7.7,0,0,0,56.51,10.23Z"/><path class="cls-1" d="M87.89,1.32A11.63,11.63,0,0,1,93.55,0a12.77,12.77,0,0,1,6.88,1.92,13.48,13.48,0,0,1,4.87,5.5,18.41,18.41,0,0,1,1.78,8.31,18.53,18.53,0,0,1-1.78,8.33,13.6,13.6,0,0,1-4.87,5.56,12.62,12.62,0,0,1-6.88,1.95,11.67,11.67,0,0,1-5.63-1.32,10.35,10.35,0,0,1-3.83-3.41V45.76h-9.4V.44h9.4V4.78A10.19,10.19,0,0,1,87.89,1.32Zm7.67,8.88a6.45,6.45,0,0,0-4.81-2,6.34,6.34,0,0,0-4.76,2A7.7,7.7,0,0,0,84,15.78,7.71,7.71,0,0,0,86,21.34a6.56,6.56,0,0,0,9.54,0,7.7,7.7,0,0,0,2-5.58A7.6,7.6,0,0,0,95.56,10.2Z"/><path class="cls-1" d="M143.38.44,124.13,45.71H114l7-15.63L108.57.44h10.5l7.1,19.19,7-19.19Z"/><path class="cls-1" d="M160.32,1.57a10.65,10.65,0,0,1,5.5-1.46v10h-2.58A7.9,7.9,0,0,0,158,11.58c-1.18,1-1.76,2.77-1.76,5.3V31.13h-9.41V.44h9.41V5.55A12.42,12.42,0,0,1,160.32,1.57Z"/><path class="cls-1" d="M200.64.44V31.13h-9.41V27a10.16,10.16,0,0,1-3.88,3.27,11.74,11.74,0,0,1-5.41,1.24,12.1,12.1,0,0,1-6.22-1.57,10.53,10.53,0,0,1-4.18-4.54,15.38,15.38,0,0,1-1.48-7V.44h9.35V17.1A6.76,6.76,0,0,0,181,21.89a5.58,5.58,0,0,0,4.29,1.7,5.67,5.67,0,0,0,4.35-1.7,6.76,6.76,0,0,0,1.59-4.79V.44Z"/><path class="cls-1" d="M212.74,30.19a12.18,12.18,0,0,1-5-3.76,10,10,0,0,1-2-5.37h9.3a3.57,3.57,0,0,0,1.48,2.59,5.26,5.26,0,0,0,3.25,1A4.61,4.61,0,0,0,222.5,24a2.1,2.1,0,0,0,1-1.78,2.07,2.07,0,0,0-1.37-2,28,28,0,0,0-4.46-1.4,41.26,41.26,0,0,1-5.5-1.62,9.45,9.45,0,0,1-3.79-2.7,7.32,7.32,0,0,1-1.6-5A8.46,8.46,0,0,1,208.2,4.7a9.83,9.83,0,0,1,4.29-3.44A16.48,16.48,0,0,1,219.23,0q5.78,0,9.1,2.86a11.13,11.13,0,0,1,3.82,7.59h-8.69a3.75,3.75,0,0,0-1.4-2.53A4.9,4.9,0,0,0,219,7a4.31,4.31,0,0,0-2.53.64,2,2,0,0,0-.88,1.73,2.12,2.12,0,0,0,1.4,2,22.68,22.68,0,0,0,4.38,1.32,48.31,48.31,0,0,1,5.55,1.73,9.64,9.64,0,0,1,3.77,2.75,7.82,7.82,0,0,1,1.68,5.09A8.05,8.05,0,0,1,230.8,27a10,10,0,0,1-4.34,3.33,16.56,16.56,0,0,1-6.57,1.21A17.57,17.57,0,0,1,212.74,30.19Z"/></g></g></svg>